<svg width="32" height="32" viewBox="0 0 32 32" fill="none" xmlns="http://www.w3.org/2000/svg">
<path d="M32 4.6875V27.3125C32 29.8999 29.8999 32 27.3125 32H19.75L17.875 30.125H16L14.125 32H4.6875C2.1001 32 0 29.8999 0 27.3125V4.6875C0 2.1001 2.1001 0 4.6875 0H27.3125C29.8999 0 32 2.1001 32 4.6875Z" fill="#7984EB"/>
<path d="M32 4.6875V27.3125C32 29.8999 29.8999 32 27.3125 32H19.75L17.875 30.125H16.9375V0H27.3125C29.8999 0 32 2.1001 32 4.6875Z" fill="#4661D1"/>
<path d="M19.75 11.25V15H25.375L24.4375 20.625H19.75V32H14.125V20.625H10.375V15H14.125V11.25C14.125 9.1687 15.2688 7.34985 16.9375 6.375C17.7625 5.90625 18.7375 5.625 19.75 5.625H25.375V11.25H19.75Z" fill="#ECECF1"/>
<path d="M19.75 11.25V15H25.375L24.4375 20.625H19.75V32H16.9375V6.375C17.7625 5.90625 18.7375 5.625 19.75 5.625H25.375V11.25H19.75Z" fill="#E2E2E7"/>
</svg>
