<?xml version="1.0" encoding="UTF-8" standalone="no"?>
<svg
   xmlns:dc="http://purl.org/dc/elements/1.1/"
   xmlns:cc="http://creativecommons.org/ns#"
   xmlns:rdf="http://www.w3.org/1999/02/22-rdf-syntax-ns#"
   xmlns:svg="http://www.w3.org/2000/svg"
   xmlns="http://www.w3.org/2000/svg"
   xmlns:sodipodi="http://sodipodi.sourceforge.net/DTD/sodipodi-0.dtd"
   xmlns:inkscape="http://www.inkscape.org/namespaces/inkscape"
   inkscape:version="1.0 (4035a4fb49, 2020-05-01)"
   sodipodi:docname="formula.svg"
   id="svg29"
   version="1.1"
   fill="none"
   viewBox="0 0 137 131"
   height="131"
   width="137">
  <metadata
     id="metadata33">
    <rdf:RDF>
      <cc:Work
         rdf:about="">
        <dc:format>image/svg+xml</dc:format>
        <dc:type
           rdf:resource="http://purl.org/dc/dcmitype/StillImage" />
        <dc:title></dc:title>
      </cc:Work>
    </rdf:RDF>
  </metadata>
  <sodipodi:namedview
     inkscape:current-layer="svg29"
     inkscape:window-maximized="1"
     inkscape:window-y="-9"
     inkscape:window-x="-9"
     inkscape:cy="42.090361"
     inkscape:cx="68.5"
     inkscape:zoom="6.0583942"
     showgrid="false"
     id="namedview31"
     inkscape:window-height="1001"
     inkscape:window-width="1920"
     inkscape:pageshadow="2"
     inkscape:pageopacity="0"
     guidetolerance="10"
     gridtolerance="10"
     objecttolerance="10"
     borderopacity="1"
     bordercolor="#666666"
     pagecolor="#ffffff" />
  <g
     transform="translate(0,-2.9433595)"
     id="g22"
     clip-path="url(#clip0)">
    <path
       id="path2"
       fill="#000000"
       d="m 24.6498,46.219 c 0.4498,0 0.9058,-0.1137 1.3243,-0.3526 L 37.2469,39.43 c 1.2833,-0.7326 1.7296,-2.367 0.997,-3.6505 -0.7327,-1.2833 -2.3667,-1.7297 -3.6506,-0.997 l -11.2728,6.4363 c -1.2833,0.7326 -1.7296,2.367 -0.997,3.6506 0.494,0.8648 1.397,1.3496 2.3263,1.3496 z" />
    <path
       id="path4"
       fill="#000000"
       d="m 23.3341,20.2706 11.2645,6.4503 c 0.4193,0.24 0.8764,0.354 1.3272,0.354 0.928,0 1.8303,-0.4835 2.3247,-1.3465 0.7343,-1.2825 0.2898,-2.9174 -0.9924,-3.6516 L 25.9936,15.6266 c -1.2828,-0.7343 -2.9174,-0.2901 -3.6516,0.9924 -0.7345,1.2825 -0.2901,2.9171 0.9921,3.6516 z" />
    <path
       id="path6"
       fill="#000000"
       d="m 112.458,96.1328 c 1.478,0 2.676,-1.198 2.676,-2.6758 0,-1.4778 -1.198,-2.6758 -2.676,-2.6758 -1.478,0 -2.676,1.198 -2.676,2.6758 0,1.4778 1.198,2.6758 2.676,2.6758 z" />
    <path
       id="path8"
       fill="#000000"
       d="m 112.428,58.5167 c 1.478,0 2.676,-1.198 2.676,-2.6758 0,-1.4778 -1.198,-2.6758 -2.676,-2.6758 -1.477,0 -2.675,1.198 -2.675,2.6758 0,1.4778 1.198,2.6758 2.675,2.6758 z" />
    <path
       id="path10"
       fill="#000000"
       d="m 90.4414,19.1318 c 1.4778,0 2.6758,-1.198 2.6758,-2.6757 0,-1.4778 -1.198,-2.6758 -2.6758,-2.6758 -1.4778,0 -2.6758,1.198 -2.6758,2.6758 0,1.4777 1.198,2.6757 2.6758,2.6757 z" />
    <path
       id="path12"
       fill="#000000"
       d="m 135.654,91.1106 -20.565,-11.7758 0.007,-11.45 c 0.002,-0.7144 -0.276,-1.386 -0.782,-1.8917 -0.505,-0.5058 -1.177,-0.7867 -1.894,-0.7867 -1.474,0 -2.673,1.2014 -2.673,2.6758 L 109.739,79.2714 90.3312,90.3523 71.191,79.3939 71.2052,57.3952 91.7846,45.6464 c 0.8322,-0.4763 1.3486,-1.3673 1.3486,-2.3252 l -0.008,-14.8265 c -0.0027,-1.4744 -1.2014,-2.6731 -2.6784,-2.6731 -1.4744,0 -2.6758,1.2014 -2.6731,2.6757 L 87.7817,41.7692 68.561,52.7431 49.2962,41.7117 49.3112,18.1983 c 5e-4,-0.9598 -0.513,-1.8466 -1.3462,-2.3237 L 26.0014,3.29737 C 25.1786,2.82589 24.1682,2.82536 23.3449,3.29576 L 1.36492,15.8452 c -0.83351,0.476 -1.3483297,1.3619 -1.3491325,2.322 L 4.17901e-7,43.2933 C -5.34738e-4,44.2531 0.512948,45.1399 1.34619,45.617 L 21.9101,57.3923 21.8951,80.906 c -5e-4,0.9598 0.513,1.8466 1.3462,2.3236 l 20.417,11.6913 -0.0152,23.8811 c -6e-4,0.96 0.5129,1.847 1.3461,2.324 l 21.9637,12.577 c 0.412,0.236 0.8707,0.354 1.3296,0.354 0.4575,0 0.9156,-0.118 1.3266,-0.353 l 21.98,-12.549 c 0.8335,-0.476 1.3483,-1.362 1.3491,-2.322 l 0.0152,-23.6943 19.5116,-11.1403 19.183,10.9854 v 25.9612 c 0,1.478 1.198,2.676 2.676,2.676 1.478,0 2.676,-1.198 2.676,-2.676 V 93.4324 c 0,-0.9593 -0.513,-1.8452 -1.346,-2.3218 z M 5.36655,19.7226 24.6696,8.70164 43.9585,19.7467 43.9446,41.6477 24.5358,52.7289 5.35263,41.7443 Z M 27.2614,57.4562 46.6702,46.3748 65.8537,57.3594 65.8397,79.3813 46.5367,90.4023 27.2477,79.357 Z M 87.5872,117.278 68.2841,128.299 48.9952,117.254 49.0091,95.2319 68.3122,84.2108 87.6011,95.2559 Z" />
    <path
       id="path14"
       fill="#000000"
       d="m 78.2361,110.292 -11.2728,6.436 c -1.2833,0.733 -1.7296,2.367 -0.997,3.651 0.4937,0.864 1.3968,1.349 2.3261,1.349 0.4498,0 0.9057,-0.114 1.3242,-0.353 l 11.2728,-6.436 c 1.2833,-0.733 1.7297,-2.367 0.997,-3.651 -0.7326,-1.283 -2.3664,-1.729 -3.6503,-0.996 z" />
    <path
       id="path16"
       fill="#000000"
       d="m 65.9845,92.1277 c -0.7342,1.2825 -0.2898,2.9174 0.9924,3.6516 l 11.2646,6.4507 c 0.4192,0.24 0.8763,0.354 1.3271,0.354 0.928,0 1.8303,-0.484 2.3248,-1.347 0.7342,-1.2824 0.2897,-2.9173 -0.9925,-3.6515 L 69.6364,91.1352 c -1.283,-0.7339 -2.9177,-0.2898 -3.6519,0.9925 z" />
    <path
       id="path18"
       fill="#000000"
       d="m 57.0354,97.2178 h -0.0017 c -1.477,0 -2.6749,1.1969 -2.6757,2.6742 L 54.3497,112.6 c -8e-4,1.478 1.1963,2.676 2.6741,2.677 h 0.0017 c 1.477,0 2.6749,-1.197 2.6757,-2.674 l 0.0083,-12.7078 c 8e-4,-1.4776 -1.1963,-2.6763 -2.6741,-2.6774 z" />
    <path
       id="path20"
       fill="#000000"
       d="m 125.05,97.5857 -0.813,-0.4655 c -0.405,-0.2328 -0.865,-0.3559 -1.328,-0.3559 -0.958,0 -1.849,0.5164 -2.325,1.3486 -0.61,1.0623 -0.42,2.4001 0.46,3.2511 l -0.008,16.333 c 0,1.477 1.202,2.678 2.676,2.678 1.474,0 2.676,-1.198 2.679,-2.675 0,0 -0.003,0 -0.003,-0.003 l 0.011,-17.7887 c 0,-0.9579 -0.517,-1.8463 -1.349,-2.3226 z" />
  </g>
  <defs
     id="defs27">
    <clipPath
       id="clip0">
      <rect
         y="0"
         x="0"
         id="rect24"
         fill="#ffffff"
         height="137"
         width="137" />
    </clipPath>
  </defs>
</svg>
