<svg width="64" height="64" viewBox="0 0 64 64" fill="none" xmlns="http://www.w3.org/2000/svg">
<g clip-path="url(#clip0)">
<path d="M50.9505 18.7925L63.7668 4.20845C64.093 3.8372 64.075 3.2762 63.7255 2.9267L61.0739 0.274951C60.7243 -0.074549 60.1634 -0.092674 59.792 0.233576L45.2079 13.0498C45.1927 13.0631 45.1781 13.077 45.1637 13.0912L42.2147 16.0402L38.4582 12.2837C38.0921 11.9176 37.4986 11.9176 37.1324 12.2837L5.6165 43.7997C5.6155 43.8007 0.2745 49.1417 0.2745 49.1417C0.09875 49.3175 0 49.556 0 49.8046C0 50.0532 0.09875 50.2917 0.2745 50.4675L13.5328 63.7257C13.7159 63.9088 13.9558 64.0003 14.1958 64.0003C14.4356 64.0003 14.6756 63.9088 14.8588 63.7257L49.0645 29.52C49.0656 29.5188 51.7168 26.8677 51.7168 26.8677C51.8925 26.692 51.9912 26.4535 51.9912 26.2048C51.9912 25.9562 51.8925 25.7177 51.7168 25.542L47.9603 21.7855L50.9092 18.8365C50.9234 18.8222 50.9371 18.8076 50.9505 18.7925ZM14.1958 61.7371L2.26325 49.8047L6.27887 45.7891L18.2114 57.7215L14.1958 61.7371ZM37.4071 38.5257H25.4748V34.7091C25.4748 34.1913 25.0551 33.7716 24.5373 33.7716C24.0194 33.7716 23.5998 34.1913 23.5998 34.7091V39.4632C23.5998 39.981 24.0194 40.4007 24.5373 40.4007H35.5321L19.5373 56.3956L7.60475 44.4632L23.5996 28.4682V30.9591C23.5996 31.4768 24.0192 31.8966 24.5371 31.8966C25.055 31.8966 25.4746 31.4768 25.4746 30.9591V26.5932L35.1436 16.9242L47.0761 28.8566L37.4071 38.5257ZM49.728 26.2051L48.4021 27.5307L36.4696 15.5983L37.7954 14.2726L41.5511 18.0283C41.5527 18.03 45.9704 22.4476 45.9704 22.4476C45.9724 22.4496 49.728 26.2051 49.728 26.2051ZM46.6343 20.4597L43.5407 17.3661L45.8268 15.0801L48.9204 18.1737L46.6343 20.4597ZM47.1969 13.7983L60.3695 2.22233L61.7781 3.63095L50.2021 16.8036L47.1969 13.7983Z" fill="#282828"/>
</g>
<defs>
<clipPath id="clip0">
<rect width="64" height="64" fill="white"/>
</clipPath>
</defs>
</svg>
