<svg width="128" height="128" viewBox="0 0 128 128" fill="none" xmlns="http://www.w3.org/2000/svg">
<path d="M41.6001 57.6C46.9122 57.6 51.2001 53.3121 51.2001 48C51.2001 42.6879 46.9122 38.4 41.6001 38.4C36.288 38.4 32.0001 42.6879 32.0001 48C32.0001 53.3121 36.288 57.6 41.6001 57.6Z" fill="#282828"/>
<path d="M86.3999 57.6C91.712 57.6 95.9999 53.3121 95.9999 48C95.9999 42.6879 91.712 38.4 86.3999 38.4C81.0878 38.4 76.7999 42.6879 76.7999 48C76.7999 53.3121 81.0878 57.6 86.3999 57.6Z" fill="#282828"/>
<path d="M63.9999 89.6C54.5598 89.6 46.3998 84.416 41.952 76.7999H31.2321C36.3522 89.888 49.0881 99.2 64.0002 99.2C78.9122 99.2 91.6481 89.888 96.7682 76.7999H86.0483C81.5999 84.416 73.4399 89.6 63.9999 89.6Z" fill="#282828"/>
<path d="M63.936 0C28.608 0 0 28.6719 0 63.9999C0 99.3278 28.608 128 63.936 128C99.3278 128 128 99.3278 128 63.9999C128 28.6719 99.3278 0 63.936 0ZM63.9999 115.2C35.712 115.2 12.7998 92.288 12.7998 63.9999C12.7998 35.7117 35.712 12.8001 63.9999 12.8001C92.2877 12.8001 115.2 35.712 115.2 63.9999C115.2 92.2877 92.288 115.2 63.9999 115.2Z" fill="#282828"/>
</svg>
