<svg width="117" height="117" viewBox="0 0 117 117" fill="none" xmlns="http://www.w3.org/2000/svg">
<path d="M105.3 113.1H99.45V105.3H89.7V85.3671C89.7 80.1021 87.0831 75.2115 82.7015 72.2904L62.0159 58.5L82.7015 44.7096C87.0831 41.7885 89.7 36.8979 89.7 31.6329V11.7H99.45V3.9H105.3C106.376 3.9 107.25 3.02835 107.25 1.95C107.25 0.87165 106.376 0 105.3 0H99.45H97.5H19.5H17.55H11.7C10.6236 0 9.75 0.87165 9.75 1.95C9.75 3.02835 10.6236 3.9 11.7 3.9H17.55V11.7H27.3V31.6329C27.3 36.8979 29.9169 41.7885 34.2986 44.7096L54.9842 58.5L34.2986 72.2904C29.9169 75.2115 27.3 80.1021 27.3 85.3671V105.3H17.55V113.1H11.7C10.6236 113.1 9.75 113.972 9.75 115.05C9.75 116.128 10.6236 117 11.7 117H17.55H19.5H97.5H99.45H105.3C106.376 117 107.25 116.128 107.25 115.05C107.25 113.972 106.376 113.1 105.3 113.1ZM21.45 7.8V3.9H95.55V7.8H89.7H27.3H21.45ZM36.4611 41.4648C33.1676 39.2672 31.2 35.5914 31.2 31.6329V11.7H85.8V31.6329C85.8 35.5914 83.8325 39.2672 80.5389 41.4648L58.5 56.1561L36.4611 41.4648ZM31.2 85.3671C31.2 81.4086 33.1676 77.7328 36.4611 75.5352L58.5 60.8439L80.5389 75.5352C83.8325 77.7328 85.8 81.4086 85.8 85.3671V105.3H31.2V85.3671ZM21.45 109.2H27.3H89.7H95.55V113.1H21.45V109.2Z" fill="black"/>
<path d="M40.7882 34.9752C39.6689 34.2283 39 32.9784 39 31.6329V27.3C39 26.2216 38.1264 25.35 37.05 25.35C35.9736 25.35 35.1 26.2216 35.1 27.3V31.6329C35.1 34.2868 36.4182 36.7497 38.6256 38.22L47.6697 44.2494C48.0012 44.4697 48.3776 44.577 48.75 44.577C49.3799 44.577 49.998 44.2728 50.3744 43.7092C50.9711 42.8122 50.7292 41.6032 49.8342 41.0046L40.7882 34.9752Z" fill="black"/>
<path d="M78.3744 80.457L69.3303 74.4276C68.4333 73.8289 67.2243 74.0707 66.6257 74.9677C66.029 75.8647 66.2708 77.0737 67.1658 77.6724L76.2099 83.7018C77.3312 84.4486 78 85.6966 78 87.0441V91.377C78 92.4553 78.8736 93.327 79.95 93.327C81.0264 93.327 81.9 92.4553 81.9 91.377V87.0441C81.9 84.3882 80.5818 81.9273 78.3744 80.457Z" fill="black"/>
</svg>
