<svg width="32" height="32" viewBox="0 0 32 32" fill="none" xmlns="http://www.w3.org/2000/svg">
<path d="M31.8047 29.4436L22.5089 20.4376C24.2721 18.3288 25.3334 15.6478 25.3334 12.7288C25.3334 5.96212 19.6511 0.456909 12.6667 0.456909C5.68227 0.456909 0 5.96212 0 12.7288C0 19.4955 5.68233 25.0007 12.6667 25.0007C15.6796 25.0007 18.4469 23.9724 20.6236 22.2643L29.9193 31.2703C30.1798 31.5225 30.6018 31.5225 30.8622 31.2703L31.8048 30.3571C32.0651 30.1048 32.0651 29.6958 31.8047 29.4436ZM12.6667 22.4171C7.1524 22.4171 2.66669 18.0712 2.66669 12.7288C2.66669 7.38636 7.1524 3.04048 12.6667 3.04048C18.181 3.04048 22.6667 7.38636 22.6667 12.7288C22.6667 18.0712 18.181 22.4171 12.6667 22.4171Z" fill="black"/>
</svg>
