<svg width="64" height="64" viewBox="0 0 64 64" fill="none" xmlns="http://www.w3.org/2000/svg">
<path d="M59 55H57V47H59V41H54.5L51.5 37H50V10.123L50.864 6.668C50.954 6.307 51 5.935 51 5.562C51 3.046 48.954 1 46.438 1H45.561C43.046 1 41 3.046 41 5.562C41 5.935 41.046 6.307 41.136 6.668L42 10.123V21H18.816C18.402 19.839 17.302 19 16 19H4C2.346 19 1 20.346 1 22V26C1 27.302 1.839 28.402 3 28.816V41.727C1.759 43.136 1 44.979 1 47C1 51.411 4.589 55 9 55C11.953 55 14.532 53.387 15.918 51H35V53H20C18.346 53 17 54.346 17 56C17 57.654 18.346 59 20 59H29C29.551 59 30 59.448 30 60C30 61.654 31.346 63 33 63H59C61.206 63 63 61.206 63 59C63 56.794 61.206 55 59 55ZM37 47H39V55H37V47ZM41 47H43V55H41V47ZM45 47H47V55H45V47ZM49 47H51V55H49V47ZM53 47H55V55H53V47ZM57 45H35V43H57V45ZM52 41H40L41.5 39H50.5L52 41ZM44 37V11H48.029L48.002 37H44ZM45.562 3H46.439C47.851 3 49 4.149 49 5.562C49 5.771 48.974 5.98 48.923 6.184L48.219 9H43.758L43.077 6.184C43.026 5.979 43 5.771 43 5.562C43 4.149 44.149 3 45.562 3ZM42 27H18.816C18.928 26.686 19 26.352 19 26V23H42V27ZM3 22C3 21.448 3.449 21 4 21H16C16.551 21 17 21.448 17 22V26C17 26.552 16.551 27 16 27H15H4C3.449 27 3 26.552 3 26V22ZM9 53C5.691 53 3 50.309 3 47C3 43.691 5.691 41 9 41C12.309 41 15 43.691 15 47C15 50.309 12.309 53 9 53ZM9 39C7.542 39 6.178 39.398 5 40.082V37.85C6.261 37.297 7.601 37 9 37C14.514 37 19 41.486 19 47C19 47.677 18.909 48.343 18.776 49H16.737C16.903 48.359 17 47.692 17 47C17 42.589 13.411 39 9 39ZM20.827 49C20.937 48.341 21 47.673 21 47C21 40.383 15.617 35 9 35C7.637 35 6.28 35.243 5 35.694V29H15H16H42V37H40.5L37.5 41H33V47H35V49H20.827ZM59 61H33C32.449 61 32 60.552 32 60C32 58.346 30.654 57 29 57H20C19.449 57 19 56.552 19 56C19 55.448 19.449 55 20 55H35V57H56H57H59C60.103 57 61 57.897 61 59C61 60.103 60.103 61 59 61Z" fill="#282828"/>
<path d="M9 43C6.794 43 5 44.794 5 47C5 49.206 6.794 51 9 51C11.206 51 13 49.206 13 47C13 44.794 11.206 43 9 43ZM9 49C7.897 49 7 48.103 7 47C7 45.897 7.897 45 9 45C10.103 45 11 45.897 11 47C11 48.103 10.103 49 9 49Z" fill="#282828"/>
<path d="M15 31H17V33H15V31Z" fill="#282828"/>
<path d="M7 31H9V33H7V31Z" fill="#282828"/>
<path d="M11 31H13V33H11V31Z" fill="#282828"/>
<path d="M46 7C46.5523 7 47 6.55228 47 6C47 5.44772 46.5523 5 46 5C45.4477 5 45 5.44772 45 6C45 6.55228 45.4477 7 46 7Z" fill="#282828"/>
<path d="M25 19C27.206 19 29 17.206 29 15C29 12.794 27.206 11 25 11C22.794 11 21 12.794 21 15C21 17.206 22.794 19 25 19ZM25 13C26.103 13 27 13.897 27 15C27 16.103 26.103 17 25 17C23.897 17 23 16.103 23 15C23 13.897 23.897 13 25 13Z" fill="#282828"/>
<path d="M14 13C16.206 13 18 11.206 18 9C18 6.794 16.206 5 14 5C11.794 5 10 6.794 10 9C10 11.206 11.794 13 14 13ZM14 7C15.103 7 16 7.897 16 9C16 10.103 15.103 11 14 11C12.897 11 12 10.103 12 9C12 7.897 12.897 7 14 7Z" fill="#282828"/>
<path d="M33 9C35.206 9 37 7.206 37 5C37 2.794 35.206 1 33 1C30.794 1 29 2.794 29 5C29 7.206 30.794 9 33 9ZM33 3C34.103 3 35 3.897 35 5C35 6.103 34.103 7 33 7C31.897 7 31 6.103 31 5C31 3.897 31.897 3 33 3Z" fill="#282828"/>
</svg>
