<svg width="64" height="64" viewBox="0 0 64 64" fill="none" xmlns="http://www.w3.org/2000/svg">
<g clip-path="url(#clip0)">
<path d="M34.8527 20.4382L27.3713 14.0256C27.1776 13.8585 26.9307 13.7677 26.6755 13.7677H10.6439C10.3607 13.7677 10.0888 13.8804 9.88839 14.0808L3.47559 20.4935C3.2752 20.6938 3.16248 20.9653 3.16248 21.249V58.6561C3.16248 59.2468 3.64107 59.725 4.2313 59.725H34.157C34.7472 59.725 35.2258 59.247 35.2258 58.6561V21.249C35.2257 20.937 35.0896 20.6406 34.8527 20.4382ZM33.0882 57.5873H5.29997V21.6916L11.0864 15.9052H26.2801L33.0882 21.7408V57.5873Z" fill="#282828"/>
<path d="M19.1941 16.974C16.8369 16.974 14.9189 18.8914 14.9189 21.2491C14.9189 23.6069 16.8368 25.5243 19.1941 25.5243C21.5514 25.5243 23.4692 23.6069 23.4692 21.2491C23.4692 18.8914 21.5512 16.974 19.1941 16.974ZM19.1941 23.3866C18.0152 23.3866 17.0566 22.4274 17.0566 21.2491C17.0566 20.0709 18.0152 19.1116 19.1941 19.1116C20.3729 19.1116 21.3316 20.0709 21.3316 21.2491C21.3316 22.4274 20.3729 23.3866 19.1941 23.3866Z" fill="#282828"/>
<path d="M51.2815 25.0479C48.4645 21.7747 46.2316 16.3235 44.8235 9.28354C44.1664 5.99895 41.2054 2.70496 37.4554 1.08614C33.3833 -0.671539 28.9737 -0.285309 25.0403 2.17469C15.9892 7.83178 18.0473 20.8731 18.1398 21.4251C18.2377 22.0077 18.7859 22.3937 19.369 22.3039C19.9509 22.2067 20.3442 21.6567 20.2483 21.0754C20.2286 20.9533 18.339 8.88354 26.1731 3.98654C29.4955 1.91152 33.2021 1.57868 36.6089 3.04813C39.6945 4.37982 42.2108 7.11646 42.7281 9.70281C44.2289 17.2081 46.5616 22.8401 49.6621 26.4419C49.8734 26.6872 50.1718 26.8136 50.4724 26.8136C50.7193 26.8136 50.9673 26.7281 51.1689 26.5552C51.6161 26.1699 51.6666 25.4958 51.2815 25.0479Z" fill="#282828"/>
<path d="M60.6943 32.8235L57.488 27.2699C56.0149 24.7182 52.7413 23.8424 50.1883 25.314C48.9519 26.0279 48.0682 27.1803 47.6985 28.559C47.329 29.9377 47.5185 31.3781 48.2324 32.6139L51.4387 38.1675C51.5809 38.4128 51.8141 38.5924 52.088 38.6653C52.1788 38.6894 52.2714 38.7019 52.3644 38.7019C52.5504 38.7019 52.735 38.6531 52.8986 38.5587L60.3027 34.2836C60.8142 33.9883 60.9893 33.335 60.6943 32.8235ZM52.756 36.1727L50.0835 31.5449C49.6558 30.803 49.542 29.9398 49.7632 29.1121C49.9851 28.2855 50.5159 27.5937 51.2574 27.1656C51.7607 26.8746 52.3115 26.7368 52.8552 26.7368C53.9643 26.7368 55.0441 27.3119 55.6367 28.3386L58.3087 32.9663L52.756 36.1727Z" fill="#282828"/>
<path d="M34.1568 57.5874H4.2313C3.64107 57.5874 3.16248 58.0654 3.16248 58.6562V62.9313C3.16248 63.522 3.64107 64.0002 4.2313 64.0002H34.157C34.7472 64.0002 35.2258 63.5222 35.2258 62.9313V58.6562C35.2257 58.0654 34.7471 57.5874 34.1568 57.5874ZM33.0882 61.8625H5.29997V59.725H33.088V61.8625H33.0882Z" fill="#282828"/>
</g>
<defs>
<clipPath id="clip0">
<rect width="64" height="64" fill="white"/>
</clipPath>
</defs>
</svg>
