<svg width="127" height="127" viewBox="0 0 127 127" fill="none" xmlns="http://www.w3.org/2000/svg">
<path d="M98.0252 67.3709L110.577 79.923L127 63.4999L110.577 47.077L98.0252 59.6291H85.7397L81.963 50.5114L90.65 41.8243H108.401V18.5985H85.1757V36.3497L76.4886 45.0368L67.3709 41.26V28.9745L79.923 16.4224L63.4999 0L47.0767 16.4229L59.6289 28.975V41.2605L50.5112 45.0373L41.8241 36.3502V18.5985H18.5985V41.8241H36.3497L45.0368 50.5112L41.26 59.6289H28.9743L16.4222 47.0767L0 63.4999L16.4227 79.9228L28.9748 67.3706H41.2605L45.0373 76.4883L36.3502 85.1754H18.5985V108.401H41.8241V90.6498L50.5112 81.9627L59.6289 85.7395V98.025L47.0767 110.577L63.4996 127L79.9225 110.577L67.3704 98.025V85.7395L76.4881 81.9627L85.1752 90.6498V108.401H108.401V85.1754H90.6496L81.9625 76.4883L85.7392 67.3706H98.0252V67.3709ZM110.577 58.0257L116.051 63.5001L110.577 68.9745L105.103 63.5001L110.577 58.0257ZM92.9174 26.3403H100.659V34.0821H92.9174V26.3403ZM34.0821 34.0823H26.3403V26.3405H34.0821V34.0823ZM16.4227 68.9743L10.9485 63.4999L16.4227 58.0255L21.8973 63.4999L16.4227 68.9743ZM34.0821 100.659H26.3403V92.9177H34.0821V100.659ZM92.9174 92.9174H100.659V100.659H92.9174V92.9174ZM58.0255 16.4229L63.5001 10.9488L68.9745 16.4229L63.4999 21.8973L58.0255 16.4229ZM68.9743 110.577L63.4996 116.051L58.0252 110.577L63.4996 105.103L68.9743 110.577ZM74.434 74.4343L63.4996 78.9633L52.5653 74.4343L48.0364 63.4999L52.5655 52.5655L63.4999 48.0364L74.4343 52.5655L78.9631 63.4999L74.434 74.4343Z" fill="black"/>
</svg>
