<svg width="64" height="64" viewBox="0 0 64 64" fill="none" xmlns="http://www.w3.org/2000/svg">
<path d="M54 6.125V8H57.0625V18.9151C55.8311 18.5181 54.9375 17.3617 54.9375 16H53.0625C53.0625 17.6886 51.6886 19.0625 50 19.0625V20.9375C51.6886 20.9375 53.0625 22.3114 53.0625 24H54.9375C54.9375 22.6383 55.8311 21.4819 57.0625 21.0849V62.125H6.9375V8H46V6.125H5.0625V64H58.9375V6.125H54ZM54 21.1105C53.6911 20.684 53.316 20.3089 52.8895 20C53.316 19.6911 53.6911 19.316 54 18.8895C54.3089 19.316 54.684 19.6911 55.1105 20C54.684 20.3089 54.3089 20.684 54 21.1105Z" fill="#282828"/>
<path d="M9.0625 10.125V32H10.9375V12H29.0625V58.125H10.9375V40H9.0625V60H30.9375V10.125H9.0625Z" fill="#282828"/>
<path d="M33.0625 10.125V55.0625H34.9375V12H54V10.125H33.0625Z" fill="#282828"/>
<path d="M53.0625 28V58.125H34V60H54.9375V28H53.0625Z" fill="#282828"/>
<path d="M17.3368 14.3994L13.3364 18.3998L14.6622 19.7257L18.6626 15.7252L17.3368 14.3994Z" fill="#282828"/>
<path d="M21.3369 14.4L13.3371 22.3999L14.6629 23.7257L22.6627 15.7259L21.3369 14.4Z" fill="#282828"/>
<path d="M41.3365 14.3992L37.3361 18.3996L38.6619 19.7254L42.6623 15.725L41.3365 14.3992Z" fill="#282828"/>
<path d="M45.3364 14.4001L37.3365 22.4L38.6623 23.7258L46.6622 15.7259L45.3364 14.4001Z" fill="#282828"/>
<path d="M14.9375 32H13.0625C13.0625 33.6886 11.6886 35.0625 10 35.0625V36.9375C11.6886 36.9375 13.0625 38.3114 13.0625 40H14.9375C14.9375 38.3114 16.3114 36.9375 18 36.9375V35.0625C16.3114 35.0625 14.9375 33.6886 14.9375 32ZM14 37.1105C13.6911 36.684 13.316 36.3089 12.8895 36C13.316 35.6911 13.6911 35.316 14 34.8895C14.3089 35.316 14.684 35.6911 15.1105 36C14.684 36.3089 14.3089 36.684 14 37.1105Z" fill="#282828"/>
<path d="M50.9375 0H49.0625C49.0625 1.68862 47.6886 3.0625 46 3.0625V4.9375C47.6886 4.9375 49.0625 6.31138 49.0625 8H50.9375C50.9375 6.31138 52.3114 4.9375 54 4.9375V3.0625C52.3114 3.0625 50.9375 1.68862 50.9375 0ZM50 5.1105C49.6911 4.684 49.316 4.30888 48.8895 4C49.316 3.69112 49.6911 3.316 50 2.8895C50.3089 3.316 50.684 3.69112 51.1105 4C50.684 4.30888 50.3089 4.684 50 5.1105Z" fill="#282828"/>
<path d="M50 34.125H48V36H50V34.125Z" fill="#282828"/>
<path d="M45 34.125H43V36H45V34.125Z" fill="#282828"/>
<path d="M40 34.125H38V36H40V34.125Z" fill="#282828"/>
</svg>
